<svg viewBox="0 0 96 96" xmlns="http://www.w3.org/2000/svg" xmlns:xlink="http://www.w3.org/1999/xlink" id="Icons_Deaf" overflow="hidden"><path d="M21.32 36.86C23.6416 22.1301 37.4645 12.0713 52.1944 14.3929 57.2416 15.1884 61.9596 17.3997 65.8 20.77L61.54 25C52.6767 17.5197 39.4276 18.6408 31.9473 27.5041 29.4705 30.4387 27.8458 33.9964 27.25 37.79 26.9932 39.4275 25.4575 40.5468 23.82 40.29 22.1825 40.0332 21.0632 38.4975 21.32 36.86Z"/><path d="M35.44 37.92C36.9643 38.5648 38.7229 37.8533 39.37 36.33 41.5174 31.2417 47.383 28.8576 52.4713 31.005 53.1711 31.3003 53.8349 31.6744 54.45 32.12L58.73 27.84C51.8936 22.241 41.8128 23.2442 36.2138 30.0806 35.2421 31.267 34.446 32.587 33.85 34 33.2118 35.5216 33.9222 37.2729 35.44 37.92Z"/><path d="M84.12 15.17 79.88 10.93 11.88 78.93 16.12 83.17 58.58 40.71C58.4586 43.3546 57.2934 45.8431 55.34 47.63 54.23 48.8601 54.3274 50.7571 55.5575 51.8671 56.6133 52.8197 58.1928 52.9003 59.34 52.06 62.6706 49.0285 64.5693 44.7337 64.57 40.23 64.5647 38.6037 64.3083 36.988 63.81 35.44L67 32.26C68.3046 35.0074 68.9875 38.0086 69 41.05 69 46.91 63.47 53.24 60.16 57.05 59.0624 58.1721 58.1023 59.4209 57.3 60.77 56.75 61.91 56.78 63.24 56.82 65.09 56.96 72.09 56.16 78.48 44.82 79.09 41.874 79.1457 38.9896 78.2439 36.6 76.52 35.2193 75.5922 33.3478 75.9593 32.42 77.34 31.4922 78.7207 31.8593 80.5922 33.24 81.52 36.4623 83.7979 40.2945 85.0555 44.24 85.13L45.12 85.13C63.18 84.13 62.89 70.27 62.78 65.03 62.78 64.45 62.78 63.69 62.78 63.28 63.13 62.8 63.97 61.84 64.65 61.05 68.54 56.55 75 49.16 75 41.05 75.0068 36.4008 73.8004 31.8302 71.5 27.79Z"/></svg>