<svg viewBox="0 0 96 96" xmlns="http://www.w3.org/2000/svg" xmlns:xlink="http://www.w3.org/1999/xlink" id="Icons_Boot" overflow="hidden"><path d="M10 22 45 22C46.1 22 47 22.9 47 24L47 26C47 27.1 46.1 28 45 28L8 28 8 24C8 22.9 8.9 22 10 22Z"/><path d="M88 73 78 73 77 73 76 73 73 70 70 73 67 70 64 73 61 70 58 73 55 70 52 73 49 70 46 73 43 70 40 73 37 70 34 73 31 70 28 73 8 73 8 67 88 67Z"/><path d="M74 48 74 63 88 63C88 63 87.8 48 74 48Z"/><path d="M60 54C58.9 54 58 53.1 58 52 58 50.9 58.9 50 60 50 61.1 50 62 50.9 62 52 62 53.1 61.1 54 60 54ZM53 51C51.9 51 51 50.1 51 49 51 47.9 51.9 47 53 47 54.1 47 55 47.9 55 49 55 50.1 54.1 51 53 51ZM47 46C45.9 46 45 45.1 45 44 45 42.9 45.9 42 47 42 48.1 42 49 42.9 49 44 49 45.1 48.1 46 47 46ZM43 40C41.9 40 41 39.1 41 38 41 36.9 41.9 36 43 36 44.1 36 45 36.9 45 38 45 39.1 44.1 40 43 40ZM47.4 33.4C47.1 32.6 46.4 32 45.5 32L8 32 8 40C8.5 40 17.5 40 23.9 46.3 27.9 50.4 30 56 30 63L70 63 70 48C70 48 52.1 47.9 47.4 33.4Z"/><path d="M8 63 26 63C26 57.1 24.3 52.5 21.1 49.2 15.8 44 8 44 8 44L8 63Z"/></svg>