<svg viewBox="0 0 96 96" xmlns="http://www.w3.org/2000/svg" xmlns:xlink="http://www.w3.org/1999/xlink" id="Icons_LowVision_M" overflow="hidden"><g id="Icons"><path d="M28.628 61.3 30.085 59.844 30.075 59.838 60.517 29.392 60.528 29.392 62.076 27.843C57.5265 26.0135 52.6754 25.0493 47.772 25 31.334 25 17.472 36.889 12.276 42 10.7521 43.493 10.6681 45.9192 12.085 47.514 16.864 52.9261 22.4429 57.5752 28.628 61.3ZM16.061 48.835 35.761 29.13C38.1525 28.2916 40.6203 27.6887 43.129 27.33L18.893 51.569C17.85 50.614 16.9 49.693 16.061 48.835ZM28.305 58.775C27.185 58.075 26.105 57.352 25.074 56.609L54.08 27.6C55.5395 27.8779 56.9818 28.2392 58.4 28.682ZM51.624 27.231 23.45 55.405C22.367 54.572 21.35 53.73 20.389 52.9L46.258 27.031C46.758 27.008 47.265 26.995 47.772 26.995 49.0595 26.9988 50.3457 27.0776 51.624 27.231ZM13.678 43.431C18.7415 38.4242 24.5765 34.2635 30.96 31.108L14.677 47.39C14.277 46.962 13.908 46.556 13.577 46.19 12.8668 45.3904 12.9113 44.1736 13.678 43.428Z"/><path d="M83.268 42C78.6284 37.4337 73.374 33.5374 67.657 30.424L82.421 15.66 81.007 14.246 13.964 81.288 15.378 82.7 34.057 64.024C38.382 65.9283 43.0467 66.9405 47.772 67 64.346 67 78.25 53.373 83.459 47.516 84.8772 45.9209 84.7932 43.4932 83.268 42ZM37.394 60.687 44.049 54.032C48.4694 56.102 53.731 54.1966 55.801 49.7762 56.9134 47.4005 56.9131 44.6534 55.8 42.278L62.46 35.62C68.2007 43.7232 66.2855 54.9459 58.1823 60.6866 51.9551 65.0982 43.6214 65.0984 37.394 60.687ZM54.638 46C54.6336 49.7903 51.5623 52.862 47.772 52.867 47.0299 52.8631 46.2937 52.7364 45.593 52.492L54.265 43.82C54.5082 44.5213 54.6342 45.2578 54.638 46ZM81.967 46.19C78.049 50.59 69.048 59.55 57.806 63.293 57.758 63.309 57.754 63.301 57.798 63.275 67.3287 57.7819 70.6019 45.6027 65.1088 36.072 64.7363 35.4255 64.3277 34.8006 63.885 34.2L66.178 31.9C71.9452 34.9703 77.2366 38.8608 81.887 43.45 82.6391 44.1943 82.6743 45.398 81.967 46.185Z"/></g></svg>