<svg viewBox="0 0 96 96" xmlns="http://www.w3.org/2000/svg" xmlns:xlink="http://www.w3.org/1999/xlink" id="Icons_ConstructionworkerMale" overflow="hidden"><style>
.MsftOfcThm_Text2_Fill_v2 {
 fill:#1F497D; 
}
.MsftOfcThm_MainDark1_Stroke_v2 {
 stroke:#000000; 
}
</style>
<g id="Icons"><path d="M31.184 51.328C27.0684 52.7159 23.2116 54.7772 19.771 57.428 17.4346 59.2527 16.0485 62.0359 16 65L16 82.57 16.89 83.164C18.968 84.549 22.559 85.637 27 86.434L27 80 46 80 46 88.047C46.758 88.0583 47.517 88.0643 48.277 88.065 48.852 88.065 49.426 88.058 50 88.052L50 80 69 80 69 86.506C73.61 85.69 77.256 84.555 79.2 83.1L80 82.5 80 64.958C79.9468 62.0222 78.5761 59.2659 76.267 57.452 72.8286 54.7995 68.9744 52.7352 64.861 51.343L58.626 48.843C58.2492 48.6911 58.0018 48.3263 58 47.92L58 45.472C61.7913 42.4424 63.9991 37.8531 64 33L64 26 65 26C66.1046 26 67 25.1046 67 24 67 22.8954 66.1046 22 65 22L64 22C63.6518 16.4777 60.4751 11.5273 55.6 8.91L54 15.24C53.8872 15.6972 53.4707 16.0137 53 16L52.76 16C52.2194 15.8869 51.8728 15.357 51.9859 14.8165 51.9859 14.8163 51.986 14.8162 51.986 14.816 51.986 14.797 51.995 14.779 52 14.76L53.9 7.27C53.5667 5.94137 52.3758 5.00723 51.006 5L45.006 5C43.634 5.0045 42.4399 5.93921 42.106 7.27L44.006 14.76C44.1509 15.292 43.8377 15.8409 43.306 15.987L43.246 16 43.006 16C42.5353 16.0137 42.1188 15.6972 42.006 15.24L40.456 8.91C35.5809 11.5273 32.4042 16.4777 32.056 22L31.006 22C29.9014 22 29.006 22.8954 29.006 24 29.006 25.1046 29.9014 26 31.006 26L32.006 26 32.006 33C32.0074 37.8494 34.2123 42.4355 37.999 45.465L37.999 47.92C38.0007 48.3241 37.7575 48.6889 37.384 48.843ZM36 33 36 26 60 26 60 33C60 39.6274 54.6274 45 48 45 41.3726 45 36 39.6274 36 33ZM46 76 27.318 76 30.456 55.977 38.893 52.546C38.953 52.521 39.006 52.487 39.065 52.46L46.005 69ZM48 53C45.312 53.0265 42.6357 52.6417 40.064 51.859 41.2848 50.9169 41.9999 49.4621 42 47.92L42 47.82C45.8473 49.392 50.1577 49.392 54.005 47.82L54.005 47.92C54.0034 49.4692 54.725 50.9304 55.956 51.871 53.3764 52.6479 50.6939 53.0286 48 53ZM50 76 50 69 56.938 52.465C56.997 52.492 57.051 52.527 57.112 52.552L65.612 55.952 68.7 76Z" class="MsftOfcThm_MainDark1_Stroke_v2 MsftOfcThm_Text2_Fill_v2" stroke="#000000" stroke-width="0.907801" fill="#1F497D"/></g></svg>