<svg viewBox="0 0 96 96" xmlns="http://www.w3.org/2000/svg" xmlns:xlink="http://www.w3.org/1999/xlink" id="Icons_Slippery" overflow="hidden"><path d="M90.55 80 51.47 12C50.3711 10.0836 47.9267 9.42084 46.0103 10.5197 45.3942 10.873 44.8833 11.3839 44.53 12L5.45 80C4.34543 81.9132 5.00093 84.3595 6.9141 85.4641 7.52097 85.8145 8.20924 85.9993 8.91 86L87.09 86C89.2991 85.9977 91.0882 84.205 91.0859 81.9959 91.0852 81.2951 90.9004 80.6069 90.55 80ZM36.08 39.68C37.4222 38.266 39.6565 38.2079 41.0705 39.5501 42.4844 40.8923 42.5426 43.1266 41.2004 44.5405 39.8619 45.9506 37.6353 46.0129 36.22 44.68 34.8008 43.3434 34.7338 41.1093 36.0705 39.6901 36.0737 39.6867 36.0768 39.6833 36.08 39.68ZM60.17 71.17 56.58 71.17C56.6366 71.3308 56.667 71.4996 56.67 71.67 56.67 72.4984 55.9984 73.17 55.17 73.17L45.67 73.17C44.8416 73.17 44.17 72.4984 44.17 71.67 44.1681 71.4991 44.1986 71.3295 44.26 71.17L34.67 71.17C33.8416 71.17 33.17 70.4984 33.17 69.67 33.17 68.8416 33.8416 68.17 34.67 68.17L39.26 68.17C39.2004 68.01 39.1699 67.8407 39.17 67.67 39.17 66.8416 39.8416 66.17 40.67 66.17L47.17 66.17C47.9984 66.17 48.67 66.8416 48.67 67.67 48.6652 67.8402 48.6349 68.0088 48.58 68.17L60.17 68.17C60.9984 68.17 61.67 68.8416 61.67 69.67 61.67 70.4984 60.9984 71.17 60.17 71.17ZM65.69 54.08C65.5614 55.049 64.6715 55.7303 63.7025 55.6017 63.6983 55.6012 63.6942 55.6006 63.69 55.6L55.22 54.45 50.83 56.86 54.83 56.17C55.2118 56.1001 55.6061 56.16 55.95 56.34L63.59 60.34C64.4571 60.7793 64.8039 61.8383 64.3646 62.7054 64.0211 63.3833 63.2813 63.7642 62.53 63.65 62.3236 63.6286 62.1232 63.5675 61.94 63.47L54.84 59.74 46.45 61.2C46.3137 61.2147 46.1763 61.2147 46.04 61.2L46.04 61.2C45.9316 61.1906 45.8244 61.1705 45.72 61.14 45.1245 61.0307 44.5727 60.753 44.13 60.34 43.8485 60.0431 43.6126 59.7061 43.43 59.34L39.06 52.34 38.66 51.86 36.8 55.32 37.51 59.02C37.6933 59.9779 37.0672 60.9035 36.11 61.09 35.9212 61.1198 35.7288 61.1198 35.54 61.09 34.7789 61.0033 34.1586 60.4394 34 59.69L33.17 55.38C33.0987 54.9841 33.1621 54.5757 33.35 54.22L35.75 49.66C35.868 49.4383 36.0316 49.244 36.23 49.09L36.23 49.09 36.3 49.09C36.3773 49.0306 36.4612 48.9803 36.55 48.94L43.55 44.75C43.9806 44.4764 44.5027 44.3863 45 44.5L50.11 45.6 51.18 42.07C51.5342 41.1959 52.4709 40.7085 53.39 40.92 54.2957 41.1674 54.8294 42.1022 54.5819 43.0079 54.5698 43.0525 54.5558 43.0965 54.54 43.14L53.02 48.14C52.9434 48.4204 52.8107 48.6823 52.63 48.91 52.2167 49.3729 51.587 49.579 50.98 49.45L45.86 48.35 49 53.87 54 51.07C54.3335 50.891 54.7147 50.8211 55.09 50.87L64.14 52.09C65.111 52.2031 65.8064 53.0819 65.6934 54.0529 65.6923 54.0619 65.6912 54.071 65.69 54.08Z"/></svg>