<svg viewBox="0 0 96 96" xmlns="http://www.w3.org/2000/svg" xmlns:xlink="http://www.w3.org/1999/xlink" id="Icons_Jail_M" overflow="hidden"><g id="Icons"><path d="M88 24 88 22 8 22 8 24 17 24 17 72 8 72 8 74 88 74 88 72 79 72 79 24ZM77 60 55 60 55 36 77 36ZM43 24 53 24 53 72 43 72ZM41 72 31 72 31 24 41 24ZM55 62 65 62 65 72 55 72ZM55 34 55 24 65 24 65 34ZM19 24 29 24 29 72 19 72ZM67 72 67 62 77 62 77 72ZM77 34 67 34 67 24 77 24Z" stroke="#1F4B7B" fill="#1F4B7B"/><path d="M63 49 63 53C63 54.6569 64.3431 56 66 56 67.6569 56 69 54.6569 69 53L69 49C71.2091 47.3431 71.6569 44.2091 70 42 68.3431 39.7909 65.2091 39.3431 63 41 60.7909 42.6569 60.3431 45.7909 62 48 62.2843 48.379 62.621 48.7157 63 49ZM66 42C67.6569 41.9982 69.0015 43.3398 69.0033 44.9967 69.0045 46.071 68.4311 47.064 67.5 47.6L67 47.888 67 53C67 53.5523 66.5523 54 66 54 65.4477 54 65 53.5523 65 53L65 47.888 64.5 47.599C63.0646 46.7715 62.5719 44.937 63.3994 43.5016 63.9353 42.572 64.927 41.9994 66 42Z" stroke="#1F4B7B" fill="#1F4B7B"/></g></svg>