<svg viewBox="0 0 96 96" xmlns="http://www.w3.org/2000/svg" xmlns:xlink="http://www.w3.org/1999/xlink" id="Icons_NoTouch" overflow="hidden"><path d="M62.974 20.634C63.0094 18.3649 61.1987 16.4968 58.9296 16.4614 56.6605 16.426 54.7924 18.2367 54.757 20.5058 54.7563 20.5485 54.7563 20.5913 54.757 20.634L54.757 32.48 62.974 24.263Z" fill="#F48616"/><path d="M52.931 15.064C52.8697 12.7949 50.9805 11.0052 48.7115 11.0665 46.5286 11.1255 44.773 12.8812 44.714 15.064L44.714 42.523 52.931 34.306Z" fill="#F48616"/><path d="M25.993 61.244 33.673 53.564 30.928 41.176C30.3732 38.7051 27.9204 37.1517 25.4495 37.7065 22.9786 38.2613 21.4252 40.7141 21.98 43.185Z" fill="#F48616"/><path d="M42.888 20.634C42.9234 18.3649 41.1127 16.4968 38.8436 16.4614 36.5745 16.426 34.7064 18.2367 34.671 20.5058 34.6703 20.5485 34.6703 20.5913 34.671 20.634L34.671 52.566 42.888 44.349Z" fill="#F48616"/><path d="M85.127 14.837 80.885 10.6 10.885 80.6 15.127 84.842 29.407 70.557 39.236 78.157 39.236 85 65.713 85 65.713 80.435C65.713 73.953 73.013 73.496 73.013 61.262L73.013 29.762C73.0082 28.9925 72.7822 28.2406 72.362 27.596ZM53.844 48.48C53.3541 48.4471 52.9639 48.0569 52.931 47.567L52.931 47.033 54.757 45.207 54.757 47.567C54.7236 48.0568 54.3338 48.4466 53.844 48.48ZM64.8 47.567C64.8 48.0712 64.3912 48.48 63.887 48.48 63.3828 48.48 62.974 48.0712 62.974 47.567L62.974 36.99 64.8 35.164Z" fill="#F48616"/></svg>