<svg viewBox="0 0 96 96" xmlns="http://www.w3.org/2000/svg" xmlns:xlink="http://www.w3.org/1999/xlink" id="Icons_WeightsUneven1" overflow="hidden"><style>
.MsftOfcThm_Text2_lumMod_75_Fill_v2 {
 fill:#17375E; 
}
</style>
<path d="M63 60 87 60C87 63.3 81.6 66 75 66 68.4 66 63 63.3 63 60Z" class="MsftOfcThm_Text2_lumMod_75_Fill_v2" fill="#17375E"/><path d="M33 39C33 42.3 27.6 45 21 45 14.4 45 9 42.3 9 39Z" class="MsftOfcThm_Text2_lumMod_75_Fill_v2" fill="#17375E"/><path d="M36 82 24 82 24 88 72 88 72 82 60.1 82 60.1 80C60.0967 78.8968 59.2032 78.0033 58.1 78L51 78 51 27.189 51.036 27.167 72.187 35.881 66.712 57 70.844 57 75 40.97 79.156 57 83.288 57 78.2 37.365C79.7176 36.7071 80.4146 34.9435 79.7567 33.4259 79.446 32.7092 78.8677 32.1423 78.145 31.846L54 21.9C53.9615 19.7955 52.8231 17.8651 51 16.813L51 11C51 9.34315 49.6569 8 48 8 46.3431 8 45 9.34315 45 11L45 16.812C44.5718 17.0594 44.1758 17.3586 43.821 17.703L20.821 8.226C19.2707 7.64136 17.54 8.42417 16.9554 9.97445 16.4034 11.4382 17.0688 13.0804 18.484 13.747L12.712 36 16.844 36 21 19.97 25.156 36 29.288 36 24.123 16.078 42.2 23.528C42.6105 25.0715 43.6178 26.3886 45 27.189L45 78 38 78C36.8968 78.0033 36.0033 78.8968 36 80ZM48 24C46.8954 24 46 23.1046 46 22 46 20.8954 46.8954 20 48 20 49.1046 20 50 20.8954 50 22 50 23.1046 49.1046 24 48 24Z" class="MsftOfcThm_Text2_lumMod_75_Fill_v2" fill="#17375E"/></svg>